<?xml version="1.0" standalone="no"?>
<!DOCTYPE svg PUBLIC "-//W3C//DTD SVG 20010904//EN"
 "http://www.w3.org/TR/2001/REC-SVG-20010904/DTD/svg10.dtd">
<svg version="1.0" xmlns="http://www.w3.org/2000/svg"
 width="500.000000pt" height="500.000000pt" viewBox="0 0 500.000000 500.000000"
 preserveAspectRatio="xMidYMid meet">

<g transform="translate(0.000000,500.000000) scale(0.100000,-0.100000)"
fill="#000000" stroke="none">
<path d="M2400 4235 c-7 -8 -10 -21 -7 -29 6 -15 -20 -26 -60 -26 -15 0 -23 7
-25 23 -4 30 -44 34 -99 8 -24 -11 -69 -23 -99 -26 -77 -10 -92 -20 -88 -57 3
-27 -1 -33 -30 -45 -31 -13 -34 -12 -39 7 -8 32 -53 26 -100 -14 -22 -19 -65
-46 -96 -60 -62 -27 -86 -56 -62 -76 11 -9 12 -16 3 -30 -18 -29 -54 -42 -68
-24 -7 8 -18 14 -25 14 -15 0 -70 -61 -79 -87 -4 -10 -24 -30 -46 -45 -21 -15
-47 -39 -56 -54 -17 -26 -17 -27 3 -43 22 -18 18 -46 -10 -70 -12 -10 -21 -10
-38 -1 -19 11 -25 9 -40 -11 -10 -13 -23 -44 -30 -68 -7 -24 -27 -66 -46 -94
-38 -56 -42 -87 -13 -94 14 -4 20 -14 20 -32 0 -33 -17 -51 -47 -51 -29 0 -43
-28 -43 -88 0 -26 -7 -69 -16 -95 -20 -61 -16 -101 13 -105 23 -3 36 -35 27
-69 -4 -14 -11 -19 -25 -16 -33 9 -44 -35 -25 -100 9 -30 16 -80 16 -110 0
-73 6 -87 40 -87 29 0 40 -15 40 -55 0 -14 -7 -25 -20 -28 -29 -7 -25 -45 9
-98 16 -24 34 -67 41 -96 14 -60 37 -85 76 -81 22 2 31 -3 43 -25 15 -26 15
-29 -1 -38 -32 -18 -21 -55 30 -101 26 -24 57 -60 67 -82 11 -21 29 -45 41
-52 21 -14 54 -10 54 7 0 16 17 9 44 -18 25 -25 25 -27 10 -45 -16 -17 -16
-19 2 -39 10 -12 37 -30 59 -41 22 -12 57 -36 78 -55 21 -19 49 -39 63 -45 23
-11 28 -9 45 12 17 24 20 24 46 10 21 -12 28 -23 28 -45 0 -24 7 -33 35 -47
19 -10 48 -18 63 -18 15 0 50 -12 78 -26 61 -30 103 -29 107 4 6 38 82 25 82
-14 0 -13 8 -27 18 -32 9 -5 76 -8 147 -8 l130 1 0 25 c0 27 16 38 57 39 20 1
27 -4 30 -22 4 -30 44 -34 105 -8 26 10 70 22 96 25 69 8 90 22 84 54 -9 47
50 70 82 31 20 -25 49 -16 101 31 19 18 53 39 76 47 23 8 52 25 64 38 22 24
22 26 6 44 -16 18 -15 20 15 45 29 25 33 26 50 11 26 -24 53 -11 88 43 17 26
46 60 66 75 19 15 43 40 52 54 16 24 16 26 -4 43 -21 17 -21 17 -2 49 20 34
29 37 46 20 7 -7 19 -9 28 -5 18 7 54 81 55 112 0 12 7 27 16 35 19 16 54 83
54 105 0 9 -9 18 -20 21 -22 6 -26 30 -9 67 10 20 15 23 30 16 30 -17 49 13
49 79 0 32 7 78 16 104 20 60 16 101 -12 105 -39 6 -39 87 0 87 33 0 42 29 26
82 -7 26 -14 80 -15 118 -1 83 -7 95 -45 95 -29 0 -40 15 -40 55 0 14 7 25 20
28 29 7 25 45 -9 98 -15 25 -34 68 -40 96 -15 63 -43 93 -71 75 -16 -10 -22
-8 -39 15 -25 31 -27 49 -6 57 28 10 16 49 -28 90 -23 23 -57 64 -75 93 -38
59 -57 70 -83 47 -14 -12 -22 -13 -38 -5 -23 13 -47 51 -32 51 15 0 22 30 11
49 -5 10 -35 30 -67 44 -32 15 -73 42 -92 62 -37 38 -76 46 -96 18 -11 -14
-16 -15 -44 -3 -28 11 -31 16 -26 41 8 34 -19 55 -85 65 -25 3 -69 18 -97 31
-60 29 -103 26 -103 -7 0 -21 -16 -25 -57 -14 -15 4 -23 14 -23 29 0 39 -23
49 -88 39 -31 -5 -70 -7 -87 -3 -54 12 -102 9 -115 -6z m56 -20 c-25 -19 -36
-19 -36 0 0 10 10 15 28 15 26 -1 26 -1 8 -15z m214 -5 c0 -12 -17 -12 -45 0
-17 7 -15 9 13 9 17 1 32 -3 32 -9z m-380 -15 c0 -9 -9 -15 -24 -15 -30 0 -43
17 -19 23 34 9 43 7 43 -8z m298 0 c29 -9 52 -20 52 -25 0 -11 -130 -11 -175
0 -32 7 -27 12 35 29 19 5 35 10 36 10 0 1 24 -6 52 -14z m272 -16 c10 -6 1
-8 -27 -9 -40 0 -52 8 -36 23 7 8 37 1 63 -14z m-582 -24 c7 -6 -107 -43 -153
-49 -44 -7 -48 -6 -35 7 36 36 92 56 139 50 25 -3 47 -7 49 -8z m-192 -14
c-17 -11 -34 -17 -39 -14 -14 8 22 33 47 33 18 0 17 -3 -8 -19z m333 5 c-2 -2
-31 -6 -64 -9 -36 -3 -52 -2 -40 3 19 8 113 14 104 6z m533 -27 c26 -17 48
-33 48 -36 0 -9 -84 9 -135 29 -73 29 -77 38 -15 38 43 0 63 -6 102 -31z
m-192 10 c11 -7 4 -8 -25 -3 -50 8 -58 14 -19 14 16 0 36 -5 44 -11z m273 -9
c19 -18 -11 -17 -39 1 l-29 21 30 -7 c17 -3 34 -10 38 -15z m-443 1 c0 -5 -11
-16 -25 -25 -25 -16 -27 -16 -56 8 l-31 26 56 0 c31 0 56 -4 56 -9z m-102 -30
l34 -29 -65 -46 c-35 -25 -70 -46 -76 -46 -10 0 -141 49 -150 56 -2 2 8 21 22
43 23 34 32 40 69 44 113 10 132 7 166 -22z m212 19 c102 -16 105 -17 128 -59
l22 -39 -57 -22 c-99 -37 -101 -37 -170 20 l-63 51 33 29 c17 16 34 30 37 30
3 0 34 -5 70 -10z m-460 -17 c0 -5 -8 -18 -18 -31 -16 -20 -21 -21 -51 -11
-38 13 -31 27 21 39 45 11 48 11 48 3z m-310 -13 c0 -5 -1 -10 -3 -10 -1 0
-18 -4 -37 -10 l-35 -10 25 20 c27 21 50 26 50 10z m1008 -20 c10 0 -2 -19
-15 -23 -10 -2 -26 -8 -35 -12 -12 -5 -21 2 -32 24 -9 16 -16 32 -16 35 0 3
21 -1 48 -9 26 -8 48 -15 50 -15z m-913 -10 c-46 -21 -59 -24 -50 -10 3 5 20
14 38 19 51 15 55 11 12 -9z m115 -94 l-48 -61 -80 0 c-44 0 -83 3 -87 7 -5 4
13 88 19 88 1 0 37 15 80 34 l79 34 43 -21 43 -21 -49 -60z m1055 84 c20 -23
17 -24 -19 -10 -14 5 -26 14 -26 20 0 17 26 11 45 -10z m-102 -22 c15 -11 27
-21 27 -23 0 -4 -91 44 -100 53 -14 13 49 -13 73 -30z m-1188 -4 c-32 -26
-144 -88 -151 -82 -2 2 14 23 34 46 35 39 77 59 127 61 17 0 16 -3 -10 -25z
m698 -18 c32 -25 54 -47 50 -49 -5 -3 -33 -12 -63 -21 -52 -16 -57 -15 -118 5
-35 12 -62 23 -60 25 17 17 115 83 124 84 6 0 36 -20 67 -44z m540 -79 c5 -21
7 -40 5 -42 -2 -2 -40 -7 -83 -10 l-80 -7 -40 58 c-22 32 -44 64 -48 71 -6 10
4 19 35 33 l42 19 80 -42 c74 -38 81 -45 89 -80z m-835 -4 c-47 -30 -60 -33
-125 -33 l-74 0 51 64 51 63 75 -31 74 -30 -52 -33z m904 81 c30 -10 56 -29
77 -54 17 -21 31 -41 31 -45 0 -11 -97 44 -135 79 -45 39 -40 43 27 20z
m-1463 -24 c-20 -27 -39 -32 -39 -10 0 7 45 38 58 40 1 0 -7 -13 -19 -30z
m1163 -45 l48 -65 -68 0 c-61 0 -73 4 -114 33 -25 17 -46 37 -46 42 0 9 96 51
123 54 6 0 31 -28 57 -64z m-1002 41 c0 -1 -5 -17 -11 -35 -8 -22 -16 -30 -26
-27 -8 3 -24 6 -34 6 -26 0 -16 16 25 41 29 18 46 24 46 15z m1448 -46 c7 -21
-20 -6 -37 21 l-16 24 24 -16 c14 -9 27 -22 29 -29z m-868 -21 c22 -4 -107
-29 -150 -29 l-55 0 50 34 50 34 50 -19 c28 -11 52 -19 55 -20z m709 27 c36
-19 59 -46 40 -46 -8 0 -24 -3 -35 -6 -17 -5 -24 1 -33 27 -16 47 -16 47 28
25z m-463 -32 l49 -36 -70 5 c-38 2 -86 11 -105 19 l-35 15 50 15 c28 9 53 16
56 17 3 1 28 -15 55 -35z m-861 -16 c3 -3 -9 -39 -26 -81 -34 -84 -24 -77
-161 -102 l-38 -7 0 45 c0 44 2 48 69 105 67 58 70 59 110 52 23 -4 44 -10 46
-12z m-140 4 c-6 -4 -25 -21 -44 -37 -31 -27 -32 -27 -18 -5 9 13 27 30 39 37
26 14 37 17 23 5z m-115 -20 c0 -4 -14 -16 -31 -26 -33 -19 -33 -11 -1 26 14
16 32 16 32 0z m435 -4 c2 -2 -15 -26 -38 -52 -35 -39 -52 -50 -101 -62 -32
-8 -60 -13 -62 -11 -2 2 3 20 11 40 8 21 21 52 29 70 l13 33 72 -7 c39 -3 73
-8 76 -11z m525 12 c11 -7 0 -10 -38 -10 -33 0 -51 4 -47 10 8 13 65 13 85 0z
m-387 -17 c16 -15 -120 -81 -171 -83 -2 0 13 20 34 45 34 42 40 45 84 45 25 0
50 -3 53 -7z m1155 -53 c58 -56 62 -62 62 -105 0 -49 0 -49 -50 -36 -19 6 -54
15 -76 20 -40 11 -42 14 -68 85 -14 41 -26 77 -26 79 0 5 33 11 80 15 8 1 43
-25 78 -58z m38 11 c16 -23 14 -22 -24 8 -23 18 -42 34 -42 37 0 12 52 -23 66
-45z m-1116 24 c-49 -19 -69 -19 -44 0 10 8 33 14 49 14 l30 -1 -35 -13z m525
-37 c116 -36 143 -50 250 -121 88 -58 133 -96 170 -141 28 -34 66 -82 86 -107
20 -24 60 -98 88 -164 48 -109 54 -133 70 -261 l18 -142 -22 -133 c-21 -119
-30 -148 -84 -262 -54 -114 -70 -139 -152 -228 -75 -80 -114 -112 -207 -170
-103 -65 -128 -75 -252 -109 -136 -37 -139 -37 -281 -32 -136 5 -151 7 -270
47 -109 37 -143 54 -237 119 -92 63 -127 96 -200 184 -78 94 -96 122 -142 232
-49 115 -54 136 -68 263 -15 134 -15 142 7 273 20 123 27 145 82 257 50 102
75 139 152 225 50 57 110 113 132 126 22 12 74 44 115 69 59 37 106 56 215 86
137 38 143 39 270 34 116 -5 144 -10 260 -45z m392 -22 c12 -38 21 -71 20 -73
-2 -1 -29 5 -61 14 -50 14 -64 24 -98 67 l-41 51 59 6 c98 10 95 11 121 -65z
m-347 44 l25 -20 -50 17 c-62 20 -66 23 -29 23 16 0 40 -9 54 -20z m147 3 c7
-10 23 -31 35 -47 l22 -29 -30 7 c-38 9 -102 41 -134 66 l-25 20 59 0 c44 0
62 -4 73 -17z m-1367 -13 c-18 -33 -118 -135 -125 -128 -16 15 37 98 78 123
51 30 61 31 47 5z m1865 0 c10 -11 16 -22 14 -25 -7 -6 -49 24 -49 36 0 15 16
10 35 -11z m66 -124 c29 -63 23 -74 -17 -35 -33 32 -94 118 -94 133 0 4 21 -7
46 -25 29 -20 53 -47 65 -73z m-1933 3 c-16 -11 -58 -12 -58 -2 0 4 15 22 33
41 l32 33 3 -32 c2 -19 -2 -35 -10 -40z m421 57 c-2 -2 -24 -16 -49 -31 -40
-25 -43 -26 -25 -5 11 12 29 26 40 31 21 8 41 12 34 5z m-568 -40 c-11 -26
-31 -36 -31 -14 0 13 31 50 37 44 2 -2 -1 -15 -6 -30z m449 -13 c-28 -32 -110
-93 -124 -93 -3 0 4 22 16 50 21 52 22 52 113 73 11 3 22 5 24 6 1 0 -12 -16
-29 -36z m1171 -5 c9 -16 4 -15 -30 8 -23 15 -41 28 -41 30 0 11 62 -22 71
-38z m409 -49 c0 -6 -7 -8 -16 -5 -9 3 -24 6 -35 6 -16 0 -19 7 -19 43 l1 42
34 -37 c19 -21 35 -43 35 -49z m-1719 -1 c-24 -54 -35 -67 -82 -94 -30 -18
-56 -31 -57 -29 -2 2 -1 37 3 78 l7 74 77 15 c42 9 77 16 78 17 1 0 -10 -27
-26 -61z m1404 42 c36 -10 43 -18 57 -58 10 -25 15 -48 13 -50 -9 -9 -72 40
-109 84 -28 33 -34 45 -20 41 10 -3 37 -11 59 -17z m435 -41 c0 -5 -5 -9 -10
-9 -10 0 -30 41 -30 58 1 10 40 -39 40 -49z m-1996 -21 c-14 -133 -8 -121 -84
-162 -38 -20 -74 -35 -79 -32 -5 4 -12 25 -16 47 -7 38 -3 47 40 109 47 70 57
77 112 79 31 1 31 1 27 -41z m1729 20 l57 -12 0 -79 0 -78 -37 21 c-63 35 -70
44 -97 109 l-25 63 22 -6 c12 -3 48 -11 80 -18z m-1889 -48 c-15 -22 -28 -40
-31 -40 -6 0 18 43 35 63 25 29 24 19 -4 -23z m2052 15 c6 -2 30 -35 53 -74
35 -59 41 -77 36 -104 -12 -62 -17 -63 -92 -19 l-70 41 -6 53 c-4 29 -7 67 -7
85 0 31 1 32 38 27 20 -3 42 -7 48 -9z m99 -85 c9 -31 5 -27 -30 30 -27 45
-27 45 -2 20 14 -14 28 -36 32 -50z m-2235 52 c0 -5 -12 -19 -26 -33 l-27 -24
17 33 c15 29 36 43 36 24z m440 5 c0 -2 -16 -19 -36 -38 -31 -29 -35 -30 -24
-9 13 25 38 49 53 50 4 0 7 -1 7 -3z m1469 -74 c17 -37 10 -35 -28 9 -32 36
-33 38 -9 27 14 -6 31 -23 37 -36z m-1889 32 c0 -28 -86 -192 -96 -183 -13 13
19 113 47 148 28 35 49 50 49 35z m307 -62 c-14 -26 -40 -61 -57 -78 l-33 -30
7 40 c3 22 6 48 6 57 0 11 19 27 48 42 26 13 48 23 50 21 2 -2 -8 -25 -21 -52z
m2002 15 l11 -33 -25 29 c-13 17 -22 34 -19 38 9 14 21 0 33 -34z m-333 -25
c41 -26 43 -29 46 -85 l3 -59 -28 33 c-40 47 -86 138 -70 138 3 0 25 -12 49
-27z m335 -34 c10 -14 21 -50 24 -80 l6 -54 -20 23 c-18 20 -45 83 -66 152
l-8 25 23 -20 c12 -11 30 -32 41 -46z m-2277 0 c4 -20 2 -28 -12 -32 -9 -2
-25 -8 -36 -12 -16 -7 -17 -5 -11 16 12 36 37 71 45 62 4 -4 10 -20 14 -34z
m171 14 c-2 -10 -7 -40 -10 -67 -5 -38 -15 -58 -47 -92 -22 -24 -44 -44 -48
-44 -7 0 -35 149 -28 155 7 6 123 64 130 65 3 0 5 -8 3 -17z m-322 -60 c-3
-20 -11 -33 -20 -33 -8 0 -13 3 -11 8 18 37 32 62 33 59 2 -1 0 -17 -2 -34z
m2277 -33 c19 -14 19 -18 4 -75 -8 -33 -17 -66 -19 -73 -3 -8 -22 7 -50 38
-34 39 -45 59 -45 84 0 18 -3 48 -7 66 l-6 33 51 -29 c29 -16 61 -36 72 -44z
m108 3 l10 -31 -30 10 c-36 13 -42 26 -28 63 10 27 11 27 24 9 7 -10 18 -33
24 -51z m-2206 -66 l12 -78 -60 -54 -59 -53 -18 21 c-29 36 -30 63 -6 143 21
72 25 78 63 95 23 10 44 15 48 11 4 -4 13 -43 20 -85z m164 16 c-24 -46 -25
-47 -19 -13 5 33 31 75 40 66 3 -2 -7 -26 -21 -53z m2164 -1 c0 -26 -25 -5
-28 24 -2 28 -2 28 13 10 8 -11 15 -26 15 -34z m-139 5 c34 -15 38 -21 58
-102 l21 -85 -22 -35 c-13 -19 -25 -35 -28 -35 -3 0 -31 26 -62 58 l-57 57 10
45 c19 86 30 121 37 118 4 -2 23 -12 43 -21z m-223 -48 c-2 -20 -6 -17 -21 21
l-17 45 21 -21 c12 -13 19 -31 17 -45z m-2122 5 c-11 -29 -15 -33 -15 -16 -1
20 19 65 26 58 2 -1 -3 -20 -11 -42z m269 -31 c-4 -26 -17 -68 -30 -93 -26
-50 -22 -54 -41 36 -4 22 2 35 32 65 21 22 40 39 42 39 2 0 1 -21 -3 -47z
m2174 -48 c-1 -29 -1 -29 -8 -5 -4 14 -11 39 -14 55 l-7 30 15 -25 c8 -14 14
-38 14 -55z m-250 15 c30 -38 32 -45 26 -90 -4 -28 -10 -50 -14 -50 -14 0 -41
71 -47 125 -4 30 -5 55 -2 55 3 0 19 -18 37 -40z m-2269 18 c-1 -7 -7 -24 -15
-38 -14 -24 -14 -24 -15 -3 0 28 10 53 21 53 5 0 9 -6 9 -12z m14 -164 c-11
-40 -19 -53 -25 -43 -17 27 -10 108 14 152 l22 42 3 -47 c2 -25 -4 -72 -14
-104z m250 49 c6 -47 3 -58 -26 -109 l-32 -57 -35 72 -36 72 55 48 c35 31 57
45 61 37 4 -6 9 -34 13 -63z m2336 35 l-1 -33 -13 25 c-14 25 -13 40 5 40 5 0
9 -15 9 -32z m-2500 -53 c0 -7 -11 -20 -25 -29 -25 -16 -25 -16 -25 11 0 16 3
39 7 52 l6 24 19 -22 c10 -13 18 -29 18 -36z m2474 12 c17 -44 19 -104 7 -147
-7 -24 -8 -23 -19 15 -16 61 -26 175 -15 175 6 0 18 -19 27 -43z m-190 -24
l48 -52 -36 -66 c-21 -36 -39 -65 -41 -65 -2 0 -15 26 -30 58 -25 54 -26 60
-14 120 6 35 14 62 18 60 3 -2 28 -26 55 -55z m-2073 -48 l-9 -40 -1 37 c-1
41 11 84 17 58 1 -9 -2 -33 -7 -55z m2208 -10 l1 -40 -26 27 -26 26 18 31 c16
27 20 29 26 14 3 -10 7 -36 7 -58z m-2364 -25 c19 -38 35 -74 35 -80 0 -15
-73 -140 -82 -140 -3 0 -20 12 -37 26 -30 25 -31 28 -31 114 l0 89 37 30 c21
17 39 31 40 31 2 0 19 -31 38 -70z m-198 -9 c-15 -6 -19 7 -11 41 l8 33 6 -35
c3 -19 1 -37 -3 -39z m2312 4 c0 -26 -2 -27 -9 -10 -5 11 -9 31 -9 45 -1 20 1
22 9 10 5 -8 9 -28 9 -45z m-1985 -107 c-3 -32 -9 -58 -13 -58 -4 0 -17 21
-29 46 l-22 45 27 50 28 49 7 -37 c4 -21 5 -64 2 -95z m2234 -17 c3 -86 1 -94
-20 -112 -52 -45 -53 -44 -94 34 l-37 74 33 59 c50 89 48 88 84 60 30 -23 31
-26 34 -115z m104 61 c-9 -27 -22 5 -15 39 l7 34 6 -30 c4 -16 4 -36 2 -43z
m-2603 -14 c-1 -43 -2 -48 -9 -27 -7 24 -3 79 6 79 2 0 4 -24 3 -52z m2294
-101 l-27 -52 -8 50 c-5 30 -3 72 3 103 l11 54 24 -52 24 -51 -27 -52z m239
15 c-9 -35 -10 -33 -10 28 0 55 1 61 10 37 6 -18 7 -40 0 -65z m-2316 3 c26
-61 28 -77 11 -149 l-12 -48 -53 60 -53 61 38 66 c20 36 39 65 41 65 2 0 14
-25 28 -55z m-276 8 c0 -10 -5 -25 -10 -33 -7 -11 -10 -7 -10 18 0 17 5 32 10
32 6 0 10 -8 10 -17z m48 -61 c13 -65 16 -142 5 -142 -12 0 -43 82 -43 111 0
37 11 89 19 89 4 0 12 -26 19 -58z m2363 -134 c-30 -32 -56 -56 -57 -55 -2 1
-7 31 -13 66 -10 60 -9 66 20 124 l31 61 37 -70 37 -69 -55 -57z m-2061 119
c0 -24 -3 -28 -10 -17 -13 20 -13 63 0 55 6 -3 10 -21 10 -38z m-220 -15 c0
-7 -8 -25 -17 -39 l-17 -26 -7 24 c-4 13 -7 39 -8 57 l-1 33 25 -18 c13 -10
25 -24 25 -31z m2530 26 c0 -13 -5 -30 -10 -38 -7 -11 -10 -5 -10 23 0 20 5
37 10 37 6 0 10 -10 10 -22z m-366 -77 l-15 -26 5 34 c4 18 6 43 7 55 1 16 3
15 9 -8 7 -21 5 -36 -6 -55z m328 19 c4 -34 -1 -57 -19 -92 -13 -27 -26 -48
-30 -48 -7 0 4 100 19 157 13 52 24 46 30 -17z m-65 3 c-3 -10 -8 -36 -12 -57
l-6 -39 -20 33 -20 32 22 24 c26 28 42 31 36 7z m-2338 -55 l52 -56 -17 -74
c-9 -40 -18 -76 -20 -80 -3 -4 -23 1 -46 11 -42 17 -42 19 -64 104 l-21 86 24
36 c13 20 28 35 32 33 5 -2 32 -29 60 -60z m151 -87 l0 -44 -35 39 c-32 35
-35 43 -29 83 3 24 8 50 11 58 10 24 52 -87 53 -136z m-344 31 c-12 -11 -26
12 -26 41 l1 32 15 -34 c8 -19 12 -36 10 -39z m2477 30 l25 -39 -25 -84 c-24
-81 -27 -85 -65 -101 -22 -10 -44 -16 -48 -13 -4 2 -13 39 -20 81 l-12 77 58
58 c32 33 59 59 60 59 1 0 13 -17 27 -38z m-179 -24 c7 -51 7 -52 -34 -92
l-42 -41 7 45 c6 47 43 140 55 140 4 0 11 -23 14 -52z m-2220 -63 c5 -20 4
-27 -3 -20 -5 6 -12 28 -15 50 -7 43 5 24 18 -30z m2517 2 c-18 -18 -25 2 -10
30 14 26 14 26 17 4 2 -13 -1 -28 -7 -34z m-2236 -131 l8 -68 -69 37 c-38 21
-70 39 -71 40 -1 0 4 23 12 50 7 28 16 62 19 77 l6 27 44 -47 c40 -43 45 -53
51 -116z m54 39 c0 -5 -8 1 -19 15 -11 14 -19 34 -19 45 0 15 5 11 19 -15 11
-19 19 -39 19 -45z m1921 -60 c0 -20 -8 -26 -99 -70 l-34 -17 7 64 c7 58 11
67 54 111 l47 48 12 -58 c7 -32 12 -67 13 -78z m165 78 c-9 -15 -14 -20 -11
-10 4 11 9 31 13 45 5 19 8 22 11 10 2 -9 -4 -29 -13 -45z m-301 0 c-4 -16
-15 -37 -26 -48 -18 -18 -17 -15 3 28 26 54 32 59 23 20z m-2154 -25 c0 -34
-13 -29 -25 10 -5 16 -2 22 9 22 11 0 16 -10 16 -32z m64 -36 c24 -48 48 -123
42 -129 -2 -2 -19 15 -39 39 -25 32 -36 57 -41 96 -8 64 3 62 38 -6z m61 16
c26 -12 29 -19 19 -55 -9 -33 -20 -28 -38 17 -23 57 -23 57 19 38z m295 -97
c11 -25 19 -48 18 -52 -2 -4 -24 8 -50 27 -47 33 -48 35 -48 87 l1 52 29 -35
c17 -19 39 -55 50 -79z m2090 82 c-1 -5 -7 -19 -15 -33 l-14 -25 -1 33 c0 22
5 32 15 32 8 0 15 -3 15 -7z m-56 -45 c-7 -45 -23 -78 -57 -115 -30 -34 -38
-28 -22 18 18 50 67 139 78 139 4 0 4 -19 1 -42z m-2204 -8 c75 -45 80 -55 80
-156 l0 -54 -42 6 c-48 7 -54 13 -105 98 -33 57 -34 62 -22 103 6 24 14 43 16
43 2 0 35 -18 73 -40z m1882 -35 c-6 -32 -16 -44 -47 -62 -22 -13 -43 -23 -47
-23 -13 0 26 74 62 119 39 48 48 39 32 -34z m258 58 c0 -4 -10 -27 -22 -52
-18 -38 -23 -42 -29 -25 -14 36 -9 61 14 72 27 13 37 14 37 5z m-74 -83 c11
-37 10 -41 -32 -104 -48 -71 -67 -86 -113 -86 -29 0 -31 2 -31 39 0 21 3 58 6
83 6 44 8 45 78 80 39 20 73 34 76 31 2 -2 10 -22 16 -43z m-2233 -54 c-7 -11
-33 22 -33 42 0 9 7 6 19 -9 11 -13 17 -28 14 -33z m353 2 c20 -9 81 -138 66
-138 -4 0 -38 9 -77 18 l-70 18 -3 78 -3 79 33 -22 c18 -12 43 -27 54 -33z
m89 -26 c-9 -9 -46 26 -55 52 -10 28 -9 28 24 -10 19 -21 33 -40 31 -42z
m-345 -7 c23 -38 23 -39 2 -22 -11 11 -26 33 -32 50 -12 37 -2 27 30 -28z
m1821 17 c-6 -10 -23 -27 -38 -37 -27 -18 -26 -17 6 24 34 42 52 50 32 13z
m118 -39 c-5 -38 -8 -73 -8 -79 -1 -13 -151 -45 -151 -33 0 5 12 33 27 63 20
42 37 60 77 84 28 17 53 31 57 31 3 1 2 -29 -2 -66z m300 27 c-6 -16 -17 -30
-25 -30 -20 0 -17 10 8 37 28 30 29 29 17 -7z m-102 -37 c-8 -15 -25 -37 -38
-48 -23 -21 -20 -13 21 47 29 42 38 43 17 1z m-1768 -8 c38 -26 110 -105 94
-105 -4 0 -28 6 -53 13 -38 11 -48 20 -67 58 -34 68 -32 72 26 34z m1398 -62
c-23 -45 -29 -49 -76 -59 -28 -6 -51 -8 -51 -4 0 19 137 126 148 116 2 -2 -8
-26 -21 -53z m-1777 6 c15 -28 4 -38 -15 -13 -17 22 -19 34 -5 34 5 0 14 -9
20 -21z m71 -16 c43 -46 79 -97 79 -113 0 -6 -21 3 -46 21 -31 21 -52 45 -65
76 -10 24 -19 47 -19 49 0 13 20 0 51 -33z m87 -18 l2 -40 -35 39 c-19 22 -35
43 -35 46 0 4 15 5 33 1 29 -6 32 -10 35 -46z m72 26 c19 -6 54 -15 77 -21 38
-10 43 -15 62 -65 39 -103 39 -103 -13 -110 -45 -7 -46 -6 -110 51 -63 57 -65
61 -66 107 0 51 -1 51 50 38z m320 -51 l25 -20 -30 10 c-17 6 -36 20 -43 31
-12 18 -11 19 5 10 10 -6 29 -20 43 -31z m1470 3 c-11 -15 -30 -33 -40 -40
-19 -13 -20 -12 -20 21 0 36 9 42 58 45 l23 1 -21 -27z m65 -23 c-17 -34 -38
-57 -68 -75 -24 -14 -47 -25 -51 -25 -4 0 8 21 26 46 32 45 95 104 110 104 5
0 -3 -22 -17 -50z m65 37 c0 -8 -9 -22 -20 -32 -23 -21 -25 -16 -8 20 12 27
28 34 28 12z m-210 -46 c0 -48 -1 -49 -68 -104 -66 -53 -70 -55 -111 -47 -23
4 -43 9 -45 11 -2 2 10 38 26 80 l30 76 82 15 c44 9 82 16 84 17 1 0 2 -21 2
-48z m-1488 21 c47 -15 64 -26 94 -66 20 -26 34 -49 32 -51 -1 -1 -36 -4 -77
-6 l-74 -4 -17 50 c-38 111 -42 103 42 77z m1171 2 c-3 -8 -17 -20 -30 -25
-45 -17 -48 -9 -8 16 48 29 46 29 38 9z m91 -92 l-27 -71 -66 5 c-98 8 -97 8
-49 64 37 43 50 51 103 63 33 8 61 13 63 12 1 -1 -10 -34 -24 -73z m-1092 38
c29 -11 67 -32 83 -45 l30 -25 -59 0 c-44 0 -62 4 -73 18 -64 81 -63 83 19 52z
m948 -5 c0 -3 -16 -23 -36 -45 -33 -36 -41 -40 -85 -40 -26 0 -50 4 -53 8 -7
12 66 52 123 67 25 7 47 14 49 14 1 1 2 -1 2 -4z m-1430 -46 c0 -14 -11 -11
-32 8 -27 24 -22 36 7 17 14 -9 25 -20 25 -25z m120 -24 c12 -15 11 -15 -13
-4 -15 7 -34 23 -43 37 l-17 25 30 -21 c16 -12 36 -28 43 -37z m569 9 c2 -2
-9 -4 -25 -4 -16 0 -40 9 -54 20 l-25 20 50 -17 c28 -9 52 -17 54 -19z m537 1
c-17 -13 -87 -23 -75 -10 4 4 68 21 89 24 3 0 -4 -6 -14 -14z m653 -12 c-20
-25 -32 -33 -42 -26 -6 3 1 14 14 24 31 24 46 24 28 2z m-109 -9 c-8 -8 -23
-20 -34 -26 -19 -10 -18 -8 3 16 26 27 53 37 31 10z m-1093 -40 c29 -20 53
-40 53 -43 0 -12 -142 -53 -149 -44 -20 22 -81 111 -81 117 0 3 28 6 62 6 56
0 69 -4 115 -36z m163 14 l35 -15 -56 -18 -55 -18 -50 38 -49 38 70 -5 c39 -3
86 -11 105 -20z m115 12 c-8 -13 -55 -13 -75 0 -11 7 -2 10 33 10 30 0 46 -4
42 -10z m-440 -61 c25 -34 45 -64 45 -68 0 -3 -19 -14 -41 -23 l-41 -17 -78
39 c-71 36 -80 44 -89 77 -6 21 -11 41 -11 46 0 4 38 7 85 7 l85 0 45 -61z
m645 57 c0 -2 -22 -18 -48 -35 l-49 -31 -46 17 c-26 10 -47 20 -47 24 0 12 72
27 133 28 31 1 57 -1 57 -3z m-877 -33 c3 -16 4 -29 2 -31 -5 -6 -61 26 -74
42 -12 14 -9 16 27 16 35 0 40 -3 45 -27z m1050 15 c-5 -7 -27 -35 -48 -63
-22 -27 -40 -51 -41 -53 0 -1 -17 5 -37 13 -21 8 -54 22 -74 30 l-37 16 50 34
c45 31 56 34 123 34 57 1 71 -2 64 -11z m168 -6 l37 -7 -17 -44 c-15 -41 -21
-46 -94 -77 l-78 -34 -40 20 c-21 11 -39 23 -39 26 0 3 21 32 46 65 47 59 47
59 98 58 28 0 67 -3 87 -7z m-1318 -18 c41 -21 120 -85 113 -91 -3 -3 -26 0
-51 7 -33 9 -54 24 -80 56 -39 47 -34 54 18 28z m-58 -14 c10 -11 16 -22 14
-25 -7 -6 -49 24 -49 36 0 15 16 10 35 -11z m854 -1 c70 -24 71 -21 -15 -82
l-50 -36 -55 45 c-30 24 -55 48 -57 53 -2 6 76 35 109 40 3 1 33 -9 68 -20z
m651 14 c-1 -11 -41 -39 -67 -47 -18 -6 -22 -4 -18 8 3 9 7 23 10 31 4 15 75
22 75 8z m70 -21 c0 -18 -78 -83 -111 -92 -66 -19 -75 -12 -28 24 43 32 116
75 132 76 4 0 7 -4 7 -8z m40 -21 c0 -11 -40 -41 -54 -41 -5 0 1 11 14 25 24
26 40 32 40 16z m-914 -48 c35 -27 64 -51 64 -55 0 -4 -16 -19 -36 -34 l-36
-28 -75 13 c-98 16 -94 15 -120 60 l-23 39 73 25 c39 14 76 26 81 26 5 1 38
-20 72 -46z m326 10 c38 -14 68 -31 68 -36 0 -6 -11 -25 -25 -42 -22 -29 -31
-33 -92 -39 -37 -4 -75 -9 -83 -11 -8 -2 -32 11 -53 28 l-38 33 63 46 c35 26
70 47 78 47 8 1 45 -11 82 -26z m-713 -49 c3 -3 -8 -2 -24 1 -17 4 -37 14 -45
22 -12 12 -8 12 24 -1 22 -9 42 -19 45 -22z m-135 -6 c-8 -13 -20 -10 -45 12
l-24 19 37 -11 c21 -6 35 -15 32 -20z m294 -2 l20 -33 -32 8 c-84 21 -83 20
-45 40 19 10 35 18 36 19 0 0 10 -15 21 -34z m872 10 c-8 -8 -28 -17 -45 -20
-27 -6 -26 -4 10 14 48 23 54 24 35 6z m-179 -15 l23 -19 -39 -11 c-63 -17
-69 -15 -48 19 20 35 32 37 64 11z m279 -11 c-27 -21 -50 -26 -50 -10 0 5 15
14 33 19 45 13 45 13 17 -9z m-1020 -31 c19 -5 51 -18 70 -29 l35 -19 -58 -1
c-49 0 -65 5 -103 30 -24 17 -44 33 -44 36 0 6 42 -1 100 -17z m390 -4 l23
-25 -54 0 -54 1 28 24 c15 14 29 25 31 25 1 0 13 -11 26 -25z m-468 -33 c-16
-5 -63 18 -57 28 4 7 17 4 36 -7 16 -10 26 -19 21 -21z m893 22 c-53 -41 -97
-56 -144 -49 l-46 7 27 14 c34 18 125 43 158 43 25 0 25 0 5 -15z m35 -34 c-8
-5 -24 -10 -35 -10 -18 0 -18 2 5 20 16 12 28 16 35 9 6 -6 5 -13 -5 -19z
m-640 10 c12 -8 10 -10 -10 -9 -14 0 -34 4 -45 9 -17 7 -16 9 10 9 17 0 37 -4
45 -9z m355 -10 c-28 -12 -57 -12 -50 0 3 6 21 10 38 9 27 0 29 -2 12 -9z
m-151 -16 c25 -4 46 -10 46 -14 0 -4 -24 -12 -53 -19 -45 -10 -60 -9 -102 6
-50 17 -50 17 -20 24 42 9 75 10 129 3z m-306 -21 c5 -18 -30 -16 -54 2 -18
14 -17 15 15 13 19 -2 36 -9 39 -15z m552 -13 c-20 -13 -50 -13 -50 0 0 6 15
10 33 10 24 0 28 -3 17 -10z m-371 -16 c2 -2 2 -7 -2 -10 -9 -10 -57 5 -57 17
0 10 48 4 59 -7z m201 -5 c0 -5 -17 -9 -37 -8 l-38 1 30 13 c30 13 45 11 45
-6z"/>
<path d="M2515 3339 c-10 -27 -1 -994 10 -994 14 0 19 985 5 999 -6 6 -11 4
-15 -5z"/>
<path d="M2816 3071 c5 -5 18 -11 29 -13 19 -3 20 -12 23 -186 l2 -183 -32
-14 c-32 -14 -30 -14 52 -14 72 1 81 3 58 12 -28 11 -28 12 -28 104 0 68 3 93
13 93 7 0 37 -33 67 -72 105 -138 105 -138 169 -137 52 1 54 1 26 11 -42 15
-49 21 -142 137 l-84 104 43 44 c51 52 124 103 149 103 10 0 21 5 24 10 4 6
-22 10 -69 10 -44 0 -76 -4 -76 -10 0 -5 7 -10 15 -10 30 0 14 -27 -60 -100
l-75 -74 0 82 c0 79 1 83 25 92 14 5 25 12 25 15 0 3 -37 5 -82 5 -49 0 -78
-4 -72 -9z"/>
<path d="M1910 2855 l0 -105 30 0 30 0 0 105 0 105 -30 0 -30 0 0 -105z"/>
<path d="M2170 2855 l0 -105 25 0 25 0 0 105 0 105 -25 0 -25 0 0 -105z"/>
<path d="M1830 2855 l0 -75 30 0 30 0 0 75 0 75 -30 0 -30 0 0 -75z"/>
<path d="M2240 2855 l0 -75 30 0 30 0 0 75 0 75 -30 0 -30 0 0 -75z"/>
<path d="M1800 2855 c0 -14 5 -25 10 -25 6 0 10 11 10 25 0 14 -4 25 -10 25
-5 0 -10 -11 -10 -25z"/>
<path d="M1980 2855 c0 -25 1 -25 85 -25 84 0 85 0 85 25 0 25 -1 25 -85 25
-84 0 -85 0 -85 -25z"/>
<path d="M2310 2855 c0 -14 5 -25 10 -25 6 0 10 11 10 25 0 14 -4 25 -10 25
-5 0 -10 -11 -10 -25z"/>
<path d="M3152 1341 c-9 -5 1 -10 29 -14 81 -11 131 -68 137 -156 3 -47 0 -69
-17 -104 -25 -52 -59 -72 -116 -71 -79 2 -134 67 -143 169 -5 65 17 118 60
146 27 17 29 19 8 13 -76 -21 -114 -84 -108 -179 6 -104 68 -165 167 -165 61
0 97 13 134 48 42 40 60 80 60 137 0 57 -18 97 -60 138 -42 39 -119 59 -151
38z"/>
<path d="M3545 1337 c-29 -14 -55 -52 -55 -82 0 -32 26 -67 72 -96 82 -53 106
-100 74 -144 -9 -13 -26 -19 -51 -19 -37 0 -54 13 -93 70 -11 16 -12 14 -7
-21 8 -51 27 -65 87 -65 60 0 93 21 108 66 16 48 -2 79 -80 134 -57 40 -65 51
-68 82 -7 82 89 94 123 15 l14 -32 1 36 c0 20 -6 42 -14 48 -22 19 -78 22
-111 8z"/>
<path d="M1365 1331 c-3 -5 5 -11 17 -13 23 -3 23 -6 26 -156 l3 -152 -26 -10
c-40 -15 -30 -20 40 -20 63 0 86 12 45 23 -18 5 -20 14 -20 81 0 54 4 76 13
76 6 0 43 -41 80 -90 68 -90 68 -90 113 -90 49 0 59 14 16 23 -21 4 -49 31
-100 94 -40 48 -72 93 -72 100 0 17 100 102 138 115 49 18 39 28 -28 28 -33 0
-60 -4 -60 -10 0 -5 7 -10 15 -10 26 0 17 -13 -50 -80 l-65 -64 0 68 c0 59 2
69 20 73 11 3 20 9 20 14 0 12 -117 12 -125 0z"/>
<path d="M1780 1332 c0 -4 10 -12 23 -17 21 -10 22 -16 25 -140 3 -151 -1
-175 -28 -175 -11 0 -20 -4 -20 -10 0 -6 28 -10 65 -10 37 0 65 4 65 10 0 6
-9 10 -20 10 -19 0 -20 7 -20 156 0 147 1 156 20 161 41 11 18 23 -45 23 -36
0 -65 -3 -65 -8z"/>
<path d="M2032 1331 c-11 -6 -9 -10 7 -14 20 -5 21 -11 21 -160 0 -150 -1
-154 -22 -165 -18 -8 2 -11 93 -11 l116 -1 6 37 c8 46 2 54 -14 19 -14 -30
-38 -39 -95 -34 l-39 3 -3 78 -3 77 45 0 c35 0 48 -5 60 -22 15 -22 16 -21 16
27 -1 39 -3 46 -11 33 -7 -13 -23 -18 -60 -18 l-50 0 3 68 3 67 43 3 c46 3 68
-8 83 -43 6 -15 8 -10 6 20 l-2 40 -95 3 c-52 1 -101 -2 -108 -7z"/>
<path d="M2360 1333 c0 -4 9 -14 20 -21 19 -11 20 -23 20 -158 0 -137 -1 -146
-20 -151 -37 -10 -20 -23 30 -23 50 0 67 13 30 23 -19 5 -20 14 -20 136 0 72
2 131 4 131 2 0 60 -66 128 -147 l123 -148 5 160 c5 163 9 185 36 185 8 0 12
5 9 10 -6 10 -95 15 -95 5 0 -3 9 -14 20 -25 18 -18 20 -33 20 -142 l0 -123
-24 30 c-206 256 -210 260 -249 263 -20 2 -37 0 -37 -5z"/>
<path d="M925 740 c11 -5 724 -9 1585 -9 861 0 1574 4 1585 9 11 5 -681 9
-1585 9 -904 0 -1596 -4 -1585 -9z"/>
</g>
</svg>
